<svg width="166" height="45" viewBox="0 0 166 45" fill="none" xmlns="http://www.w3.org/2000/svg">
<path d="M1.13666 33.6263C0.820923 33.6263 0.552544 33.5157 0.331526 33.2947C0.110509 33.0737 0 32.8053 0 32.4896V1.61027C0 1.29453 0.110509 1.02615 0.331526 0.805136C0.552544 0.584119 0.820923 0.47361 1.13666 0.47361H5.58859C5.9359 0.47361 6.21217 0.584119 6.4174 0.805136C6.62264 1.02615 6.72525 1.29453 6.72525 1.61027V32.4896C6.72525 32.8053 6.62264 33.0737 6.4174 33.2947C6.21217 33.5157 5.9359 33.6263 5.58859 33.6263H1.13666Z" fill="#3866F2"/>
<path d="M14.7292 33.6262C14.4135 33.6262 14.1451 33.5157 13.9241 33.2947C13.703 33.0737 13.5925 32.8053 13.5925 32.4896V10.1352C13.5925 9.8195 13.703 9.55112 13.9241 9.3301C14.1451 9.10908 14.4135 8.99857 14.7292 8.99857H18.6128C18.9285 8.99857 19.1969 9.10908 19.4179 9.3301C19.6389 9.55112 19.7494 9.8195 19.7494 10.1352V12.077C20.5704 11.0667 21.6202 10.2221 22.8989 9.54322C24.1777 8.86438 25.7643 8.52496 27.6587 8.52496C29.5847 8.52496 31.2582 8.95911 32.679 9.82739C34.0998 10.6957 35.197 11.9192 35.9706 13.4979C36.7441 15.0766 37.1309 16.971 37.1309 19.1812V32.4896C37.1309 32.8053 37.0204 33.0737 36.7994 33.2947C36.5784 33.5157 36.31 33.6262 35.9942 33.6262H31.8265C31.5107 33.6262 31.2424 33.5157 31.0213 33.2947C30.8003 33.0737 30.6898 32.8053 30.6898 32.4896V19.4653C30.6898 17.634 30.2399 16.1974 29.34 15.1555C28.4402 14.1136 27.1378 13.5926 25.4328 13.5926C23.7909 13.5926 22.4806 14.1136 21.5018 15.1555C20.523 16.1974 20.0336 17.634 20.0336 19.4653V32.4896C20.0336 32.8053 19.9231 33.0737 19.7021 33.2947C19.4811 33.5157 19.2127 33.6262 18.897 33.6262H14.7292Z" fill="#3866F2"/>
<path d="M52.476 34.0999C50.5816 34.0999 48.9634 33.8788 47.6215 33.4368C46.2796 32.9948 45.1824 32.4422 44.3299 31.7792C43.4774 31.1161 42.8459 30.4531 42.4355 29.79C42.025 29.127 41.804 28.5744 41.7724 28.1324C41.7408 27.7851 41.8435 27.5088 42.0803 27.3036C42.3171 27.0983 42.5776 26.9957 42.8617 26.9957H46.6032C46.7295 26.9957 46.84 27.0115 46.9348 27.0431C47.0295 27.0747 47.1558 27.1694 47.3136 27.3272C47.7241 27.6746 48.1582 28.0377 48.6161 28.4165C49.0739 28.7954 49.6185 29.1191 50.25 29.3874C50.8815 29.6558 51.6708 29.79 52.6181 29.79C53.8494 29.79 54.8835 29.5453 55.7202 29.0559C56.5569 28.5665 56.9753 27.864 56.9753 26.9484C56.9753 26.2853 56.7937 25.7485 56.4306 25.3381C56.0675 24.9276 55.3966 24.5566 54.4178 24.2251C53.439 23.8936 52.0497 23.5384 50.25 23.1595C48.4819 22.749 47.0137 22.2281 45.8455 21.5966C44.6772 20.9651 43.8089 20.1757 43.2406 19.2285C42.6723 18.2813 42.3881 17.1762 42.3881 15.9133C42.3881 14.6819 42.7591 13.5058 43.5011 12.3849C44.2431 11.264 45.3482 10.3405 46.8164 9.61426C48.2845 8.88806 50.1079 8.52496 52.2865 8.52496C53.9915 8.52496 55.4755 8.73809 56.7385 9.16434C58.0014 9.59058 59.0513 10.1194 59.888 10.7509C60.7247 11.3824 61.3641 12.0218 61.8061 12.669C62.2481 13.3163 62.4849 13.8767 62.5165 14.3504C62.5481 14.6977 62.4533 14.9739 62.2323 15.1792C62.0113 15.3844 61.7587 15.487 61.4746 15.487H57.9699C57.812 15.487 57.6699 15.4554 57.5436 15.3923C57.4173 15.3291 57.291 15.2502 57.1647 15.1555C56.8174 14.8398 56.4385 14.5082 56.0281 14.1609C55.6176 13.8136 55.1203 13.5058 54.5362 13.2374C53.9521 12.969 53.1864 12.8348 52.2392 12.8348C51.0394 12.8348 50.1237 13.0953 49.4922 13.6163C48.8608 14.1372 48.545 14.7924 48.545 15.5817C48.545 16.1185 48.695 16.5842 48.995 16.9789C49.2949 17.3736 49.9027 17.7446 50.8184 18.0919C51.734 18.4392 53.1232 18.8023 54.9861 19.1812C57.1016 19.5601 58.7829 20.1205 60.0301 20.8625C61.2772 21.6045 62.1613 22.457 62.6823 23.42C63.2032 24.383 63.4637 25.4486 63.4637 26.6168C63.4637 28.0377 63.0454 29.3164 62.2087 30.4531C61.3719 31.5897 60.1406 32.4817 58.5145 33.129C56.8884 33.7762 54.8756 34.0999 52.476 34.0999Z" fill="#3866F2"/>
<path d="M79.4716 33.6262C77.5772 33.6262 75.9827 33.2947 74.6882 32.6317C73.3936 31.9686 72.4306 30.9819 71.7991 29.6716C71.1677 28.3613 70.8519 26.7273 70.8519 24.7698V14.0188H67.1104C66.7947 14.0188 66.5263 13.9083 66.3053 13.6873C66.0843 13.4663 65.9738 13.1979 65.9738 12.8822V10.1352C65.9738 9.8195 66.0843 9.55112 66.3053 9.3301C66.5263 9.10908 66.7947 8.99857 67.1104 8.99857H70.8519V1.13666C70.8519 0.820923 70.9545 0.552544 71.1598 0.331526C71.365 0.110509 71.6413 0 71.9886 0H75.8248C76.1406 0 76.4089 0.110509 76.63 0.331526C76.851 0.552544 76.9615 0.820923 76.9615 1.13666V8.99857H82.8816C83.1973 8.99857 83.4657 9.10908 83.6867 9.3301C83.9078 9.55112 84.0183 9.8195 84.0183 10.1352V12.8822C84.0183 13.1979 83.9078 13.4663 83.6867 13.6873C83.4657 13.9083 83.1973 14.0188 82.8816 14.0188H76.9615V24.2961C76.9615 25.5907 77.1904 26.601 77.6482 27.3272C78.106 28.0534 78.9033 28.4165 80.0399 28.4165H83.3078C83.6236 28.4165 83.892 28.5271 84.113 28.7481C84.334 28.9691 84.4445 29.2375 84.4445 29.5532V32.4896C84.4445 32.8053 84.334 33.0737 84.113 33.2947C83.892 33.5157 83.6236 33.6262 83.3078 33.6262H79.4716Z" fill="#3866F2"/>
<path d="M93.1115 42.6248C92.8589 42.6248 92.6379 42.5301 92.4485 42.3407C92.259 42.1512 92.1643 41.9302 92.1643 41.6776C92.1643 41.5513 92.1722 41.4329 92.188 41.3224C92.2038 41.2119 92.259 41.0777 92.3537 40.9198L96.0479 32.1581L86.9546 10.7036C86.8283 10.3878 86.7651 10.1668 86.7651 10.0405C86.7967 9.75635 86.9072 9.51165 87.0967 9.30642C87.2861 9.10119 87.5229 8.99857 87.8071 8.99857H91.6433C92.0222 8.99857 92.3064 9.0933 92.4958 9.28274C92.6853 9.47218 92.8273 9.67741 92.9221 9.89843L99.2211 25.3854L105.71 9.89843C105.804 9.64584 105.946 9.43271 106.136 9.25906C106.325 9.0854 106.609 8.99857 106.988 8.99857H110.777C111.03 8.99857 111.259 9.0933 111.464 9.28274C111.669 9.47218 111.772 9.6932 111.772 9.94579C111.772 10.1352 111.709 10.3878 111.582 10.7036L98.1791 41.725C98.0528 41.9776 97.895 42.1907 97.7055 42.3643C97.5161 42.538 97.2319 42.6248 96.853 42.6248H93.1115Z" fill="#1B0273"/>
<path d="M126.975 44.0457C124.67 44.0457 122.775 43.7457 121.291 43.1458C119.807 42.5459 118.639 41.8197 117.787 40.9672C116.934 40.1147 116.326 39.2701 115.963 38.4334C115.6 37.5967 115.403 36.9415 115.371 36.4679C115.34 36.1522 115.442 35.8759 115.679 35.6391C115.916 35.4023 116.192 35.2839 116.508 35.2839H120.628C120.944 35.2839 121.197 35.3549 121.386 35.497C121.575 35.6391 121.733 35.8996 121.86 36.2785C122.049 36.6889 122.302 37.131 122.617 37.6046C122.933 38.0782 123.415 38.4807 124.062 38.8123C124.709 39.1438 125.601 39.3096 126.738 39.3096C127.938 39.3096 128.948 39.1359 129.769 38.7886C130.59 38.4413 131.213 37.8572 131.64 37.0362C132.066 36.2153 132.279 35.0786 132.279 33.6262V30.4057C131.521 31.3214 130.55 32.0633 129.366 32.6317C128.182 33.2 126.722 33.4842 124.985 33.4842C123.28 33.4842 121.812 33.2079 120.581 32.6553C119.35 32.1028 118.323 31.3292 117.502 30.3347C116.681 29.3401 116.058 28.164 115.632 26.8063C115.205 25.4486 114.961 23.9488 114.898 22.307C114.866 21.4545 114.866 20.602 114.898 19.7495C114.961 18.1708 115.198 16.7026 115.608 15.3449C116.018 13.9873 116.642 12.7953 117.479 11.7692C118.315 10.743 119.35 9.94579 120.581 9.37746C121.812 8.80913 123.28 8.52496 124.985 8.52496C126.785 8.52496 128.301 8.86438 129.532 9.54322C130.763 10.2221 131.774 11.0667 132.563 12.077V10.1826C132.563 9.83528 132.674 9.55112 132.895 9.3301C133.116 9.10908 133.384 8.99857 133.7 8.99857H137.536C137.852 8.99857 138.12 9.10908 138.341 9.3301C138.562 9.55112 138.673 9.83528 138.673 10.1826L138.72 33.0106C138.72 35.2839 138.294 37.2415 137.441 38.8833C136.589 40.5252 135.302 41.796 133.581 42.6959C131.861 43.5957 129.658 44.0457 126.975 44.0457ZM126.738 28.4639C128.032 28.4639 129.074 28.1797 129.864 27.6114C130.653 27.0431 131.237 26.3011 131.616 25.3855C131.995 24.4698 132.216 23.5384 132.279 22.5912C132.311 22.1807 132.326 21.6597 132.326 21.0282C132.326 20.3968 132.311 19.8916 132.279 19.5127C132.216 18.5339 131.995 17.5946 131.616 16.6947C131.237 15.7949 130.653 15.0529 129.864 14.4688C129.074 13.8846 128.032 13.5926 126.738 13.5926C125.443 13.5926 124.401 13.8846 123.612 14.4688C122.823 15.0529 122.262 15.8185 121.931 16.7658C121.599 17.713 121.402 18.7549 121.339 19.8916C121.276 20.6494 121.276 21.4229 121.339 22.2123C121.402 23.3174 121.599 24.3514 121.931 25.3144C122.262 26.2774 122.823 27.0431 123.612 27.6114C124.397 28.1797 125.439 28.4639 126.738 28.4639Z" fill="#3866F2"/>
<path d="M152.171 34.0999C150.529 34.0999 149.045 33.7762 147.719 33.129C146.393 32.4817 145.343 31.6134 144.569 30.5241C143.796 29.4348 143.409 28.2113 143.409 26.8536C143.409 24.6435 144.301 22.8832 146.085 21.5729C147.869 20.2626 150.229 19.3864 153.165 18.9444L159.654 17.9971V17.0026C159.654 15.6765 159.322 14.6503 158.659 13.9241C157.996 13.1979 156.859 12.8348 155.249 12.8348C154.113 12.8348 153.189 13.0637 152.479 13.5215C151.768 13.9794 151.239 14.5872 150.892 15.3449C150.639 15.7554 150.276 15.9606 149.803 15.9606H146.061C145.714 15.9606 145.453 15.8659 145.28 15.6765C145.106 15.487 145.019 15.2344 145.019 14.9187C145.051 14.4135 145.256 13.7978 145.635 13.0716C146.014 12.3454 146.614 11.6429 147.435 10.964C148.256 10.2852 149.313 9.70899 150.608 9.23538C151.902 8.76177 153.465 8.52496 155.297 8.52496C157.286 8.52496 158.967 8.76966 160.34 9.25906C161.714 9.74845 162.811 10.4036 163.632 11.2245C164.453 12.0455 165.053 13.0085 165.432 14.1136C165.811 15.2186 166 16.3869 166 17.6183V32.4896C166 32.8053 165.89 33.0737 165.669 33.2947C165.448 33.5157 165.179 33.6262 164.863 33.6262H161.027C160.68 33.6262 160.404 33.5157 160.198 33.2947C159.993 33.0737 159.891 32.8053 159.891 32.4896V30.6425C159.48 31.2424 158.928 31.8029 158.233 32.3238C157.538 32.8448 156.694 33.271 155.699 33.6026C154.705 33.9341 153.524 34.0999 152.171 34.0999ZM153.781 29.6006C154.886 29.6006 155.889 29.3638 156.788 28.8902C157.688 28.4165 158.399 27.6825 158.92 26.6879C159.441 25.6933 159.701 24.4382 159.701 22.9227V21.9281L154.965 22.6859C153.102 22.97 151.713 23.4279 150.797 24.0593C149.882 24.6908 149.424 25.4644 149.424 26.38C149.424 27.0747 149.637 27.6667 150.063 28.1561C150.489 28.6455 151.034 29.0086 151.697 29.2454C152.36 29.4822 153.051 29.6006 153.781 29.6006Z" fill="#3866F2"/>
</svg>
