<svg width="605" height="141" viewBox="0 0 605 141" fill="none" xmlns="http://www.w3.org/2000/svg">
<path d="M177.042 116C176.197 116 175.479 115.697 174.887 115.09C174.296 114.483 174 113.747 174 112.88V28.12C174 27.2533 174.296 26.5167 174.887 25.91C175.479 25.3033 176.197 25 177.042 25H188.958C189.887 25 190.627 25.3033 191.176 25.91C191.725 26.5167 192 27.2533 192 28.12V112.88C192 113.747 191.725 114.483 191.176 115.09C190.627 115.697 189.887 116 188.958 116H177.042Z" fill="#3866F2"/>
<path d="M212.323 116.054C211.504 116.054 210.808 115.756 210.235 115.161C209.662 114.565 209.376 113.842 209.376 112.991V52.7549C209.376 51.9041 209.662 51.181 210.235 50.5854C210.808 49.9899 211.504 49.6921 212.323 49.6921H222.39C223.209 49.6921 223.905 49.9899 224.478 50.5854C225.051 51.181 225.337 51.9041 225.337 52.7549V57.9873C227.465 55.2648 230.187 52.9889 233.502 51.1597C236.817 49.3305 240.93 48.4159 245.841 48.4159C250.834 48.4159 255.172 49.5857 258.855 51.9254C262.539 54.2651 265.383 57.5619 267.388 61.8159C269.394 66.0699 270.397 71.1746 270.397 77.1302V112.991C270.397 113.842 270.11 114.565 269.537 115.161C268.964 115.756 268.268 116.054 267.45 116.054H256.645C255.827 116.054 255.131 115.756 254.558 115.161C253.985 114.565 253.699 113.842 253.699 112.991V77.8959C253.699 72.9613 252.532 69.0902 250.2 66.2826C247.867 63.4749 244.49 62.0711 240.07 62.0711C235.814 62.0711 232.417 63.4749 229.88 66.2826C227.342 69.0902 226.074 72.9613 226.074 77.8959V112.991C226.074 113.842 225.787 114.565 225.214 115.161C224.641 115.756 223.946 116.054 223.127 116.054H212.323Z" fill="#3866F2"/>
<path d="M310.177 117.33C305.266 117.33 301.071 116.735 297.592 115.544C294.113 114.352 291.269 112.864 289.059 111.077C286.849 109.29 285.212 107.504 284.148 105.717C283.084 103.93 282.511 102.441 282.429 101.25C282.347 100.314 282.613 99.5699 283.227 99.0168C283.841 98.4638 284.516 98.1873 285.253 98.1873H294.952C295.28 98.1873 295.566 98.2299 295.812 98.3149C296.057 98.4 296.385 98.6553 296.794 99.0807C297.858 100.017 298.984 100.995 300.17 102.016C301.357 103.037 302.769 103.909 304.406 104.632C306.043 105.355 308.09 105.717 310.545 105.717C313.737 105.717 316.418 105.057 318.587 103.739C320.756 102.42 321.841 100.527 321.841 98.0597C321.841 96.273 321.37 94.8267 320.429 93.7207C319.487 92.6146 317.748 91.6149 315.211 90.7216C312.673 89.8283 309.072 88.8711 304.406 87.8502C299.823 86.7441 296.016 85.3403 292.988 83.6388C289.959 81.9372 287.708 79.8102 286.235 77.2578C284.762 74.7054 284.025 71.7276 284.025 68.3245C284.025 65.0064 284.987 61.8372 286.91 58.8168C288.834 55.7965 291.699 53.308 295.505 51.3511C299.311 49.3943 304.038 48.4159 309.686 48.4159C314.106 48.4159 317.953 48.9902 321.227 50.1388C324.501 51.2873 327.222 52.7124 329.392 54.414C331.561 56.1156 333.218 57.8384 334.364 59.5826C335.51 61.3267 336.124 62.8368 336.206 64.113C336.288 65.0489 336.042 65.7934 335.469 66.3464C334.896 66.8994 334.241 67.1759 333.505 67.1759H324.419C324.01 67.1759 323.641 67.0908 323.314 66.9207C322.987 66.7505 322.659 66.5378 322.332 66.2826C321.431 65.4318 320.449 64.5384 319.385 63.6026C318.321 62.6667 317.032 61.8372 315.518 61.114C314.003 60.3908 312.018 60.0292 309.563 60.0292C306.453 60.0292 304.079 60.7311 302.442 62.1349C300.805 63.5388 299.986 65.3041 299.986 67.4311C299.986 68.8775 300.375 70.1324 301.153 71.1959C301.93 72.2594 303.506 73.2591 305.88 74.1949C308.253 75.1308 311.855 76.1092 316.684 77.1302C322.168 78.1511 326.527 79.6613 329.76 81.6607C332.993 83.66 335.285 85.9572 336.635 88.5521C337.986 91.147 338.661 94.0184 338.661 97.1664C338.661 100.995 337.577 104.441 335.408 107.504C333.239 110.566 330.046 112.97 325.831 114.714C321.616 116.458 316.398 117.33 310.177 117.33Z" fill="#3866F2"/>
<path d="M380.16 116.054C375.249 116.054 371.115 115.161 367.76 113.374C364.404 111.587 361.907 108.929 360.27 105.398C358.633 101.867 357.815 97.4641 357.815 92.1892V63.2197H348.115C347.297 63.2197 346.601 62.9219 346.028 62.3264C345.455 61.7308 345.168 61.0076 345.168 60.1568V52.7549C345.168 51.9041 345.455 51.181 346.028 50.5854C346.601 49.9899 347.297 49.6921 348.115 49.6921H357.815V28.5073C357.815 27.6565 358.081 26.9333 358.613 26.3378C359.145 25.7422 359.861 25.4445 360.761 25.4445H370.706C371.525 25.4445 372.22 25.7422 372.793 26.3378C373.366 26.9333 373.653 27.6565 373.653 28.5073V49.6921H389C389.819 49.6921 390.514 49.9899 391.087 50.5854C391.66 51.181 391.947 51.9041 391.947 52.7549V60.1568C391.947 61.0076 391.66 61.7308 391.087 62.3264C390.514 62.9219 389.819 63.2197 389 63.2197H373.653V90.913C373.653 94.4013 374.246 97.1238 375.433 99.0806C376.62 101.037 378.687 102.016 381.633 102.016H390.105C390.924 102.016 391.619 102.314 392.192 102.909C392.765 103.505 393.052 104.228 393.052 105.079V112.991C393.052 113.842 392.765 114.565 392.192 115.161C391.619 115.756 390.924 116.054 390.105 116.054H380.16Z" fill="#3866F2"/>
<path d="M415.52 140.302C414.865 140.302 414.292 140.046 413.801 139.536C413.31 139.025 413.065 138.43 413.065 137.749C413.065 137.409 413.085 137.09 413.126 136.792C413.167 136.494 413.31 136.133 413.556 135.707L423.132 112.098L399.559 54.2863C399.232 53.4355 399.068 52.84 399.068 52.4996C399.15 51.7339 399.436 51.0746 399.927 50.5215C400.418 49.9685 401.032 49.692 401.769 49.692H411.714C412.696 49.692 413.433 49.9473 413.924 50.4577C414.415 50.9682 414.783 51.5212 415.029 52.1168L431.358 93.8482L448.179 52.1168C448.425 51.4361 448.793 50.8619 449.284 50.3939C449.775 49.926 450.512 49.692 451.494 49.692H461.316C461.971 49.692 462.564 49.9473 463.096 50.4577C463.629 50.9682 463.895 51.5638 463.895 52.2444C463.895 52.7549 463.731 53.4355 463.403 54.2863L428.657 137.877C428.33 138.557 427.921 139.132 427.43 139.6C426.938 140.068 426.202 140.302 425.22 140.302H415.52Z" fill="#1B0273"/>
<path d="M503.462 140C497.469 140 492.544 139.223 488.685 137.669C484.827 136.116 481.789 134.235 479.573 132.027C477.356 129.819 475.776 127.631 474.832 125.464C473.888 123.297 473.375 121.6 473.293 120.373C473.211 119.556 473.478 118.84 474.093 118.227C474.709 117.613 475.427 117.307 476.248 117.307H486.961C487.782 117.307 488.439 117.491 488.931 117.859C489.424 118.227 489.834 118.901 490.163 119.883C490.655 120.946 491.312 122.091 492.133 123.317C492.954 124.544 494.206 125.587 495.889 126.445C497.572 127.304 499.891 127.733 502.846 127.733C505.966 127.733 508.593 127.284 510.727 126.384C512.861 125.484 514.483 123.972 515.591 121.845C516.699 119.719 517.253 116.775 517.253 113.013V104.672C515.283 107.044 512.759 108.965 509.68 110.437C506.602 111.909 502.805 112.645 498.29 112.645C493.857 112.645 490.04 111.93 486.838 110.499C483.637 109.068 480.969 107.064 478.834 104.488C476.7 101.912 475.078 98.8658 473.97 95.3493C472.862 91.8329 472.226 87.9484 472.062 83.696C471.979 81.488 471.979 79.28 472.062 77.072C472.226 72.9831 472.841 69.1804 473.909 65.664C474.976 62.1476 476.597 59.0604 478.773 56.4027C480.948 53.7449 483.637 51.68 486.838 50.208C490.04 48.736 493.857 48 498.29 48C502.969 48 506.91 48.8791 510.111 50.6373C513.313 52.3956 515.94 54.5831 517.992 57.2V52.2933C517.992 51.3938 518.279 50.6578 518.854 50.0853C519.429 49.5129 520.126 49.2267 520.947 49.2267H530.922C531.742 49.2267 532.44 49.5129 533.015 50.0853C533.59 50.6578 533.877 51.3938 533.877 52.2933L534 111.419C534 117.307 532.892 122.377 530.675 126.629C528.459 130.882 525.114 134.173 520.64 136.504C516.166 138.835 510.44 140 503.462 140ZM502.846 99.6427C506.212 99.6427 508.921 98.9067 510.973 97.4347C513.025 95.9627 514.544 94.0409 515.529 91.6693C516.514 89.2978 517.089 86.8853 517.253 84.432C517.335 83.3689 517.376 82.0196 517.376 80.384C517.376 78.7484 517.335 77.44 517.253 76.4587C517.089 73.9236 516.514 71.4907 515.529 69.16C514.544 66.8293 513.025 64.9076 510.973 63.3947C508.921 61.8818 506.212 61.1253 502.846 61.1253C499.48 61.1253 496.771 61.8818 494.719 63.3947C492.667 64.9076 491.21 66.8907 490.348 69.344C489.486 71.7973 488.973 74.496 488.808 77.44C488.644 79.4027 488.644 81.4062 488.808 83.4507C488.973 86.3129 489.486 88.9911 490.348 91.4853C491.21 93.9796 492.667 95.9627 494.719 97.4347C496.761 98.9067 499.47 99.6427 502.846 99.6427Z" fill="#3866F2"/>
<path d="M568.624 117.33C564.368 117.33 560.521 116.458 557.083 114.714C553.645 112.97 550.924 110.63 548.918 107.695C546.913 104.76 545.91 101.463 545.91 97.8045C545.91 91.8489 548.222 87.1057 552.847 83.5749C557.472 80.0441 563.59 77.6832 571.202 76.4921L588.023 73.9397V71.2597C588.023 67.6864 587.163 64.9213 585.445 62.9645C583.726 61.0076 580.779 60.0292 576.605 60.0292C573.658 60.0292 571.264 60.6461 569.422 61.8797C567.58 63.1134 566.209 64.7511 565.309 66.793C564.654 67.8991 563.713 68.4521 562.485 68.4521H552.786C551.885 68.4521 551.21 68.1968 550.76 67.6864C550.31 67.1759 550.085 66.4953 550.085 65.6445C550.166 64.2832 550.698 62.6241 551.681 60.6673C552.663 58.7105 554.218 56.8175 556.346 54.9883C558.474 53.1591 561.216 51.6064 564.572 50.3302C567.928 49.054 571.98 48.4159 576.727 48.4159C581.884 48.4159 586.243 49.0753 589.803 50.394C593.364 51.7127 596.208 53.4781 598.336 55.6902C600.464 57.9022 602.02 60.4972 603.002 63.4749C603.984 66.4527 604.475 69.6007 604.475 72.9187V112.991C604.475 113.842 604.189 114.565 603.616 115.161C603.043 115.756 602.347 116.054 601.528 116.054H591.583C590.683 116.054 589.967 115.756 589.435 115.161C588.903 114.565 588.637 113.842 588.637 112.991V108.014C587.573 109.63 586.14 111.141 584.34 112.544C582.539 113.948 580.349 115.097 577.771 115.99C575.193 116.884 572.133 117.33 568.624 117.33ZM572.798 105.206C575.663 105.206 578.262 104.568 580.595 103.292C582.928 102.016 584.769 100.038 586.12 97.3578C587.47 94.6778 588.146 91.2959 588.146 87.2121V84.5321L575.868 86.574C571.039 87.3397 567.437 88.5734 565.063 90.2749C562.69 91.9765 561.503 94.061 561.503 96.5283C561.503 98.4 562.055 99.9953 563.16 101.314C564.265 102.633 565.677 103.611 567.396 104.249C569.115 104.887 570.906 105.206 572.798 105.206Z" fill="#3866F2"/>
<g clip-path="url(#clip0_68_680)">
<path d="M138.936 53.6077C137.36 47.6059 134.962 41.9268 131.869 36.6894C128.106 30.3209 123.316 24.609 117.717 19.7711C114.282 16.8031 110.546 14.1643 106.558 11.9058C101.209 8.87656 95.4083 6.52941 89.2797 4.98597C83.7553 3.5925 77.9666 2.85278 72.0014 2.85278C66.0362 2.85278 60.2457 3.59158 54.7213 4.98506C51.7602 5.73026 48.8756 6.6629 46.0817 7.77202C43.0916 8.95611 40.2071 10.3404 37.4421 11.9049C33.4538 14.1634 29.7167 16.8022 26.283 19.7702C26.1635 19.8735 26.0458 19.9768 25.9254 20.0829C23.8925 21.8613 21.9679 23.7604 20.1638 25.7629C17.1326 29.1259 14.4377 32.7842 12.1311 36.6894C11.922 37.0442 11.7156 37.399 11.5148 37.7583C8.71621 42.6949 6.53296 48.0128 5.06408 53.6077C3.64095 59.0171 2.8855 64.6842 2.8855 70.5261C2.8855 76.3679 3.64188 82.035 5.06408 87.4444C6.53296 93.0393 8.71621 98.3572 11.5148 103.294C11.7165 103.653 11.9229 104.008 12.1311 104.363C14.4377 108.268 17.1326 111.927 20.1638 115.289C21.9688 117.292 23.8934 119.19 25.9254 120.969C26.0449 121.075 26.1626 121.179 26.283 121.282C29.7176 124.25 33.4538 126.889 37.4421 129.147C40.2071 130.713 43.0916 132.096 46.0817 133.281C48.8747 134.39 51.7592 135.323 54.7213 136.068C60.2457 137.461 66.0344 138.201 71.9996 138.201C77.9647 138.201 83.7534 137.461 89.2778 136.068C95.4074 134.525 101.207 132.176 106.556 129.148C110.544 126.89 114.282 124.251 117.715 121.283C123.314 116.445 128.104 110.732 131.867 104.365C134.961 99.1271 137.358 93.4471 138.934 87.4462C140.357 82.0369 141.113 76.3688 141.113 70.5279C141.113 64.687 140.359 59.0171 138.936 53.6077ZM66.2379 120.97C62.245 120.54 58.3883 119.664 54.7213 118.394C51.7023 117.348 48.8131 116.037 46.0817 114.489C42.9861 112.736 40.0913 110.678 37.4421 108.354C36.0068 107.101 34.6462 105.769 33.3669 104.364C32.7908 103.736 32.2314 103.093 31.6898 102.437C28.0181 97.9979 25.0971 92.9387 23.1128 87.4453L23.0315 87.213C21.1742 81.9866 20.1638 76.3734 20.1638 70.527C20.1638 64.6806 21.1742 59.0664 23.0315 53.8409C23.0577 53.7632 23.0866 53.6855 23.1128 53.6086C25.0971 48.1152 28.0181 43.0552 31.6898 38.6169C32.2323 37.9613 32.7917 37.3176 33.3669 36.6903C34.6462 35.285 36.0068 33.9528 37.4421 32.7001C40.0913 30.3758 42.9861 28.3176 46.0817 26.5648C48.8131 25.0158 51.7023 23.7047 54.7213 22.6595C58.3883 21.3904 63.303 20.4066 66.2379 20.0838C67.6713 19.9265 71.9996 19.7711 71.9996 19.7711C78.0591 19.7711 83.8739 20.7888 89.2778 22.6586C95.7165 24.8887 101.572 28.3286 106.556 32.6992C107.991 33.9518 109.352 35.2841 110.631 36.6894C115.095 41.5702 118.608 47.3033 120.885 53.6077C122.796 58.8991 123.834 64.5928 123.834 70.5261C123.834 76.4593 122.795 82.153 120.885 87.4444C118.608 93.7488 115.095 99.4828 110.631 104.363C109.352 105.768 107.991 107.1 106.556 108.353C101.571 112.724 95.7165 116.163 89.2778 118.393C83.8739 120.264 78.0591 121.281 71.9996 121.281L66.2379 120.97Z" fill="#1B0273" stroke="#1B0273" stroke-miterlimit="10"/>
<path d="M46.0817 7.77201C43.0917 8.9561 40.2071 10.3404 37.4421 11.9049C33.4538 14.1634 29.7167 16.8022 26.2831 19.7702C26.1635 19.8735 26.0459 19.9768 25.9254 20.0829C23.8925 21.8613 21.9679 23.7604 20.1638 25.7629V2.85095C26.1299 2.85095 31.9177 3.59158 37.4421 4.98414C40.4041 5.72934 43.2887 6.6629 46.0817 7.77201Z" fill="#1B0273" stroke="#1B0273" stroke-miterlimit="10"/>
<path d="M97.9185 133.28C100.909 132.096 103.793 130.712 106.558 129.147C110.546 126.889 114.283 124.25 117.717 121.282C117.837 121.179 117.954 121.075 118.075 120.969C120.108 119.191 122.032 117.292 123.836 115.289V138.2C117.87 138.2 112.082 137.46 106.558 136.067C103.596 135.323 100.711 134.389 97.9185 133.28Z" fill="#1B0273" stroke="#1B0273" stroke-miterlimit="10"/>
<path d="M56.3516 115.516C55.711 115.516 55.1508 115.28 54.6708 114.81C54.1908 114.338 53.9517 113.79 53.9517 113.164C53.9517 112.85 53.9704 112.557 54.0115 112.283C54.0507 112.008 54.1908 111.676 54.4317 111.284L63.796 89.5373L40.7449 36.2889C40.4236 35.5062 40.2649 34.9576 40.2649 34.643C40.3433 33.9372 40.6235 33.33 41.1053 32.8217C41.5853 32.3133 42.1848 32.0573 42.9057 32.0573H52.6304C53.5904 32.0573 54.3094 32.2932 54.7894 32.7631C55.2693 33.2331 55.6298 33.7415 55.8707 34.2901L71.8379 72.7287L88.2842 34.2901C88.5232 33.6647 88.8837 33.1362 89.3637 32.7046C89.8437 32.273 90.5646 32.0573 91.5264 32.0573H101.13C101.768 32.0573 102.349 32.2932 102.87 32.7631C103.389 33.2331 103.651 33.7817 103.651 34.4071C103.651 34.879 103.49 35.5062 103.171 36.2889L69.1962 113.282C68.875 113.909 68.4753 114.438 67.9953 114.871C67.5153 115.301 66.7944 115.517 65.8345 115.517H56.3516V115.516Z" fill="#1B0273" stroke="#1B0273" stroke-miterlimit="10"/>
</g>
<defs>
<clipPath id="clip0_68_680">
<rect width="144" height="141" fill="white"/>
</clipPath>
</defs>
</svg>
